<svg width="40" height="40" viewBox="0 0 40 40" fill="none" xmlns="http://www.w3.org/2000/svg">
<path d="M20 10.7692C18.1743 10.7692 16.3897 11.3106 14.8717 12.3249C13.3537 13.3392 12.1705 14.7808 11.4719 16.4675C10.7732 18.1542 10.5904 20.0102 10.9466 21.8008C11.3028 23.5914 12.1819 25.2362 13.4729 26.5271C14.7638 27.8181 16.4086 28.6972 18.1992 29.0534C19.9898 29.4096 21.8458 29.2268 23.5325 28.5281C25.2192 27.8295 26.6608 26.6463 27.6751 25.1283C28.6894 23.6103 29.2308 21.8257 29.2308 20C29.2282 17.5526 28.2549 15.2062 26.5243 13.4757C24.7938 11.7451 22.4474 10.7718 20 10.7692ZM20 26.1538C18.7829 26.1538 17.5931 25.7929 16.5811 25.1167C15.5691 24.4405 14.7804 23.4794 14.3146 22.355C13.8488 21.2305 13.727 19.9932 13.9644 18.7994C14.2018 17.6057 14.7879 16.5092 15.6486 15.6486C16.5092 14.7879 17.6057 14.2018 18.7994 13.9644C19.9932 13.727 21.2305 13.8488 22.355 14.3146C23.4794 14.7804 24.4405 15.5691 25.1167 16.5811C25.7929 17.5931 26.1538 18.7829 26.1538 20C26.1538 21.6321 25.5055 23.1974 24.3514 24.3514C23.1974 25.5055 21.6321 26.1538 20 26.1538ZM29.2308 0H10.7692C7.91399 0.00305428 5.17657 1.13865 3.15761 3.15761C1.13865 5.17657 0.00305428 7.91399 0 10.7692V29.2308C0.00305428 32.086 1.13865 34.8234 3.15761 36.8424C5.17657 38.8614 7.91399 39.9969 10.7692 40H29.2308C32.086 39.9969 34.8234 38.8614 36.8424 36.8424C38.8614 34.8234 39.9969 32.086 40 29.2308V10.7692C39.9969 7.91399 38.8614 5.17657 36.8424 3.15761C34.8234 1.13865 32.086 0.00305428 29.2308 0ZM36.9231 29.2308C36.9231 31.2709 36.1126 33.2275 34.6701 34.6701C33.2275 36.1126 31.2709 36.9231 29.2308 36.9231H10.7692C8.7291 36.9231 6.77254 36.1126 5.32995 34.6701C3.88736 33.2275 3.07692 31.2709 3.07692 29.2308V10.7692C3.07692 8.7291 3.88736 6.77254 5.32995 5.32995C6.77254 3.88736 8.7291 3.07692 10.7692 3.07692H29.2308C31.2709 3.07692 33.2275 3.88736 34.6701 5.32995C36.1126 6.77254 36.9231 8.7291 36.9231 10.7692V29.2308ZM32.3077 10C32.3077 10.4564 32.1723 10.9026 31.9188 11.2821C31.6652 11.6616 31.3048 11.9574 30.8831 12.132C30.4614 12.3067 29.9974 12.3524 29.5498 12.2634C29.1021 12.1743 28.691 11.9545 28.3682 11.6318C28.0455 11.309 27.8257 10.8979 27.7366 10.4502C27.6476 10.0026 27.6933 9.53856 27.868 9.11688C28.0426 8.69521 28.3384 8.3348 28.7179 8.08122C29.0974 7.82765 29.5436 7.69231 30 7.69231C30.612 7.69231 31.199 7.93544 31.6318 8.36821C32.0646 8.80099 32.3077 9.38796 32.3077 10Z" fill="black"/>
</svg>
