<?xml version="1.0" encoding="UTF-8"?>
<svg id="logotipo_3" data-name="logotipo 3" xmlns="http://www.w3.org/2000/svg" viewBox="0 0 1080 1080">
  <defs>
    <style>
      .cls-1 {
        fill: none;
        stroke: #000;
        stroke-miterlimit: 10;
        stroke-width: 5px;
      }
    </style>
  </defs>
  <g>
    <path d="m254.11,663.9c-15.87,0-28.35-3.85-37.45-11.55-9.1-7.7-13.65-21.58-13.65-41.65v-95.55h-30.1v-24.85h30.1l3.85-41.65h25.55v41.65h51.1v24.85h-51.1v95.55c0,10.97,2.21,18.37,6.65,22.23,4.43,3.85,12.25,5.77,23.45,5.77h18.2v25.2h-26.6Z"/>
    <path d="m375.71,668.1c-16.57,0-31.27-3.8-44.1-11.37-12.84-7.58-22.93-18.14-30.27-31.67-7.35-13.53-11.03-29.52-11.03-47.95s3.62-34.12,10.85-47.77c7.23-13.65,17.33-24.26,30.27-31.85,12.95-7.58,27.94-11.37,44.97-11.37s31.32,3.79,43.57,11.37c12.25,7.58,21.64,17.56,28.17,29.92,6.53,12.37,9.8,25.67,9.8,39.9,0,2.57-.06,5.13-.18,7.7-.12,2.57-.17,5.49-.17,8.75h-138.25c.7,13.3,3.79,24.32,9.27,33.07,5.48,8.75,12.36,15.35,20.65,19.78,8.28,4.43,17.09,6.65,26.43,6.65,12.13,0,22.28-2.8,30.45-8.4,8.17-5.6,14.11-13.18,17.85-22.75h29.05c-4.67,16.1-13.59,29.46-26.77,40.07-13.18,10.62-30.04,15.92-50.57,15.92Zm0-157.15c-14,0-26.43,4.26-37.28,12.78-10.85,8.52-17.09,20.94-18.72,37.27h109.2c-.7-15.63-6.07-27.88-16.1-36.75-10.03-8.86-22.4-13.3-37.1-13.3Z"/>
    <path d="m558.2,668.1c-16.57,0-31.44-3.8-44.62-11.37-13.19-7.58-23.57-18.2-31.15-31.85-7.58-13.65-11.37-29.57-11.37-47.77s3.79-34.12,11.37-47.77c7.58-13.65,17.96-24.26,31.15-31.85,13.18-7.58,28.05-11.37,44.62-11.37,20.53,0,37.85,5.37,51.97,16.1,14.12,10.74,23.04,25.08,26.78,43.05h-30.1c-2.34-10.73-8.05-19.07-17.15-25.02-9.1-5.95-19.72-8.92-31.85-8.92-9.8,0-19.02,2.45-27.65,7.35-8.64,4.9-15.64,12.25-21,22.05-5.37,9.8-8.05,21.94-8.05,36.4s2.68,26.6,8.05,36.4c5.36,9.8,12.36,17.21,21,22.23,8.63,5.02,17.85,7.52,27.65,7.52,12.13,0,22.75-2.97,31.85-8.92,9.1-5.95,14.81-14.4,17.15-25.37h30.1c-3.5,17.5-12.37,31.73-26.6,42.7-14.24,10.97-31.62,16.45-52.15,16.45Z"/>
    <path d="m659.49,663.9v-251.99h29.4v251.99h-29.4Z"/>
    <path d="m776.53,668.1c-14.47,0-26.48-2.45-36.05-7.35-9.57-4.9-16.68-11.43-21.35-19.6-4.67-8.17-7-17.03-7-26.6,0-17.73,6.76-31.38,20.3-40.95,13.53-9.57,31.96-14.35,55.3-14.35h46.9v-2.1c0-15.17-3.97-26.65-11.9-34.47-7.93-7.82-18.55-11.73-31.85-11.73-11.43,0-21.29,2.86-29.57,8.58-8.28,5.72-13.47,14.06-15.57,25.03h-30.1c1.17-12.6,5.42-23.21,12.77-31.85,7.35-8.63,16.5-15.22,27.47-19.77,10.96-4.55,22.63-6.83,35-6.83,24.26,0,42.52,6.47,54.77,19.42s18.37,30.16,18.37,51.62v106.75h-26.25l-1.75-31.15c-4.9,9.8-12.07,18.15-21.52,25.03-9.45,6.88-22.11,10.33-37.97,10.33Zm4.55-24.85c11.2,0,20.82-2.91,28.87-8.75,8.05-5.83,14.17-13.41,18.37-22.75,4.2-9.33,6.3-19.13,6.3-29.4v-.35h-44.45c-17.27,0-29.46,2.98-36.57,8.93-7.12,5.95-10.68,13.36-10.68,22.22s3.33,16.4,9.98,21.87c6.65,5.49,16.04,8.22,28.18,8.22Z"/>
  </g>
  <line class="cls-1" x1="936.36" y1="463.18" x2="936.36" y2="670.97"/>
</svg>