<svg width="35" height="40" viewBox="0 0 35 40" fill="none" xmlns="http://www.w3.org/2000/svg">
<path d="M27.6444 6.26667C26.1254 4.53249 25.2883 2.30541 25.2889 0H18.4222V27.5556C18.3693 29.0467 17.7397 30.4592 16.6661 31.4954C15.5926 32.5317 14.1588 33.1109 12.6667 33.1111C9.51111 33.1111 6.88889 30.5333 6.88889 27.3333C6.88889 23.5111 10.5778 20.6444 14.3778 21.8222V14.8C6.71111 13.7778 0 19.7333 0 27.3333C0 34.7333 6.13333 40 12.6444 40C19.6222 40 25.2889 34.3333 25.2889 27.3333V13.3556C28.0733 15.3552 31.4164 16.4281 34.8444 16.4222V9.55556C34.8444 9.55556 30.6667 9.75556 27.6444 6.26667Z" fill="black"/>
</svg>
